<mxfile host="Electron" agent="Mozilla/5.0 (Windows NT 10.0; Win64; x64) AppleWebKit/537.36 (KHTML, like Gecko) draw.io/28.1.2 Chrome/138.0.7204.243 Electron/37.4.0 Safari/537.36" version="28.1.2">
  <diagram name="Side-1" id="FMCcvBdBYyl_ahmPA1IN">
    <mxGraphModel dx="1426" dy="2010" grid="1" gridSize="10" guides="1" tooltips="1" connect="1" arrows="1" fold="1" page="1" pageScale="1" pageWidth="827" pageHeight="1169" math="0" shadow="0">
      <root>
        <mxCell id="0" />
        <mxCell id="1" parent="0" />
        <mxCell id="VAKbw_D1ASkcfNDLAL3N-3" style="edgeStyle=orthogonalEdgeStyle;rounded=0;orthogonalLoop=1;jettySize=auto;html=1;exitX=0.5;exitY=1;exitDx=0;exitDy=0;entryX=0.5;entryY=0;entryDx=0;entryDy=0;" edge="1" parent="1" source="VAKbw_D1ASkcfNDLAL3N-1">
          <mxGeometry relative="1" as="geometry">
            <mxPoint x="414" y="-1030" as="targetPoint" />
          </mxGeometry>
        </mxCell>
        <mxCell id="VAKbw_D1ASkcfNDLAL3N-1" value="Start" style="rounded=1;whiteSpace=wrap;html=1;" vertex="1" parent="1">
          <mxGeometry x="354" y="-1140" width="120" height="60" as="geometry" />
        </mxCell>
        <mxCell id="VAKbw_D1ASkcfNDLAL3N-56" style="edgeStyle=orthogonalEdgeStyle;rounded=0;orthogonalLoop=1;jettySize=auto;html=1;exitX=0;exitY=0;exitDx=0;exitDy=0;entryX=1;entryY=0.5;entryDx=0;entryDy=0;" edge="1" parent="1" source="VAKbw_D1ASkcfNDLAL3N-6" target="VAKbw_D1ASkcfNDLAL3N-7">
          <mxGeometry relative="1" as="geometry" />
        </mxCell>
        <mxCell id="VAKbw_D1ASkcfNDLAL3N-57" value="Exit" style="edgeLabel;html=1;align=center;verticalAlign=middle;resizable=0;points=[];" vertex="1" connectable="0" parent="VAKbw_D1ASkcfNDLAL3N-56">
          <mxGeometry x="0.0169" relative="1" as="geometry">
            <mxPoint as="offset" />
          </mxGeometry>
        </mxCell>
        <mxCell id="VAKbw_D1ASkcfNDLAL3N-60" style="edgeStyle=orthogonalEdgeStyle;rounded=0;orthogonalLoop=1;jettySize=auto;html=1;exitX=0;exitY=1;exitDx=0;exitDy=0;entryX=0.25;entryY=0;entryDx=0;entryDy=0;" edge="1" parent="1" source="VAKbw_D1ASkcfNDLAL3N-6" target="VAKbw_D1ASkcfNDLAL3N-14">
          <mxGeometry relative="1" as="geometry" />
        </mxCell>
        <mxCell id="VAKbw_D1ASkcfNDLAL3N-6" value="Menu" style="rhombus;whiteSpace=wrap;html=1;" vertex="1" parent="1">
          <mxGeometry x="374" y="-1030" width="80" height="80" as="geometry" />
        </mxCell>
        <mxCell id="VAKbw_D1ASkcfNDLAL3N-7" value="End" style="rounded=1;whiteSpace=wrap;html=1;" vertex="1" parent="1">
          <mxGeometry x="260" y="-1040" width="80" height="50" as="geometry" />
        </mxCell>
        <mxCell id="VAKbw_D1ASkcfNDLAL3N-21" style="edgeStyle=orthogonalEdgeStyle;rounded=0;orthogonalLoop=1;jettySize=auto;html=1;exitX=0;exitY=1;exitDx=0;exitDy=0;entryX=0.5;entryY=0;entryDx=0;entryDy=0;" edge="1" parent="1" source="VAKbw_D1ASkcfNDLAL3N-10" target="VAKbw_D1ASkcfNDLAL3N-19">
          <mxGeometry relative="1" as="geometry">
            <Array as="points">
              <mxPoint x="130" y="-940" />
            </Array>
          </mxGeometry>
        </mxCell>
        <mxCell id="VAKbw_D1ASkcfNDLAL3N-22" style="edgeStyle=orthogonalEdgeStyle;rounded=0;orthogonalLoop=1;jettySize=auto;html=1;exitX=1;exitY=1;exitDx=0;exitDy=0;entryX=0.5;entryY=0;entryDx=0;entryDy=0;" edge="1" parent="1" source="VAKbw_D1ASkcfNDLAL3N-10" target="VAKbw_D1ASkcfNDLAL3N-20">
          <mxGeometry relative="1" as="geometry">
            <Array as="points">
              <mxPoint x="280" y="-940" />
            </Array>
          </mxGeometry>
        </mxCell>
        <mxCell id="VAKbw_D1ASkcfNDLAL3N-10" value="Encrypt" style="rhombus;whiteSpace=wrap;html=1;" vertex="1" parent="1">
          <mxGeometry x="170" y="-1000" width="80" height="80" as="geometry" />
        </mxCell>
        <mxCell id="VAKbw_D1ASkcfNDLAL3N-27" style="edgeStyle=orthogonalEdgeStyle;rounded=0;orthogonalLoop=1;jettySize=auto;html=1;exitX=0;exitY=1;exitDx=0;exitDy=0;entryX=0.5;entryY=0;entryDx=0;entryDy=0;" edge="1" parent="1" source="VAKbw_D1ASkcfNDLAL3N-11" target="VAKbw_D1ASkcfNDLAL3N-25">
          <mxGeometry relative="1" as="geometry">
            <Array as="points">
              <mxPoint x="540" y="-940" />
            </Array>
          </mxGeometry>
        </mxCell>
        <mxCell id="VAKbw_D1ASkcfNDLAL3N-53" style="edgeStyle=orthogonalEdgeStyle;rounded=0;orthogonalLoop=1;jettySize=auto;html=1;exitX=1;exitY=1;exitDx=0;exitDy=0;entryX=0.25;entryY=0;entryDx=0;entryDy=0;" edge="1" parent="1" source="VAKbw_D1ASkcfNDLAL3N-11" target="VAKbw_D1ASkcfNDLAL3N-26">
          <mxGeometry relative="1" as="geometry">
            <Array as="points">
              <mxPoint x="660" y="-940" />
            </Array>
          </mxGeometry>
        </mxCell>
        <mxCell id="VAKbw_D1ASkcfNDLAL3N-11" value="Decrypt" style="rhombus;whiteSpace=wrap;html=1;" vertex="1" parent="1">
          <mxGeometry x="560" y="-1000" width="80" height="80" as="geometry" />
        </mxCell>
        <mxCell id="VAKbw_D1ASkcfNDLAL3N-12" style="edgeStyle=orthogonalEdgeStyle;rounded=0;orthogonalLoop=1;jettySize=auto;html=1;exitX=0;exitY=1;exitDx=0;exitDy=0;entryX=0.913;entryY=0.375;entryDx=0;entryDy=0;entryPerimeter=0;" edge="1" parent="1" source="VAKbw_D1ASkcfNDLAL3N-6" target="VAKbw_D1ASkcfNDLAL3N-10">
          <mxGeometry relative="1" as="geometry" />
        </mxCell>
        <mxCell id="VAKbw_D1ASkcfNDLAL3N-58" value="1" style="edgeLabel;html=1;align=center;verticalAlign=middle;resizable=0;points=[];" vertex="1" connectable="0" parent="VAKbw_D1ASkcfNDLAL3N-12">
          <mxGeometry x="0.0334" y="5" relative="1" as="geometry">
            <mxPoint as="offset" />
          </mxGeometry>
        </mxCell>
        <mxCell id="VAKbw_D1ASkcfNDLAL3N-13" style="edgeStyle=orthogonalEdgeStyle;rounded=0;orthogonalLoop=1;jettySize=auto;html=1;exitX=1;exitY=1;exitDx=0;exitDy=0;entryX=0.1;entryY=0.375;entryDx=0;entryDy=0;entryPerimeter=0;" edge="1" parent="1" source="VAKbw_D1ASkcfNDLAL3N-6" target="VAKbw_D1ASkcfNDLAL3N-11">
          <mxGeometry relative="1" as="geometry" />
        </mxCell>
        <mxCell id="VAKbw_D1ASkcfNDLAL3N-59" value="2" style="edgeLabel;html=1;align=center;verticalAlign=middle;resizable=0;points=[];" vertex="1" connectable="0" parent="VAKbw_D1ASkcfNDLAL3N-13">
          <mxGeometry x="-0.1045" relative="1" as="geometry">
            <mxPoint as="offset" />
          </mxGeometry>
        </mxCell>
        <mxCell id="VAKbw_D1ASkcfNDLAL3N-14" value="Unknown" style="rounded=0;whiteSpace=wrap;html=1;" vertex="1" parent="1">
          <mxGeometry x="376" y="-920" width="76" height="30" as="geometry" />
        </mxCell>
        <mxCell id="VAKbw_D1ASkcfNDLAL3N-30" style="edgeStyle=orthogonalEdgeStyle;rounded=0;orthogonalLoop=1;jettySize=auto;html=1;exitX=0.5;exitY=1;exitDx=0;exitDy=0;entryX=0.5;entryY=0;entryDx=0;entryDy=0;" edge="1" parent="1" source="VAKbw_D1ASkcfNDLAL3N-19" target="VAKbw_D1ASkcfNDLAL3N-29">
          <mxGeometry relative="1" as="geometry" />
        </mxCell>
        <mxCell id="VAKbw_D1ASkcfNDLAL3N-19" value="Caesar" style="rounded=0;whiteSpace=wrap;html=1;" vertex="1" parent="1">
          <mxGeometry x="70" y="-870" width="120" height="60" as="geometry" />
        </mxCell>
        <mxCell id="VAKbw_D1ASkcfNDLAL3N-37" value="" style="edgeStyle=orthogonalEdgeStyle;rounded=0;orthogonalLoop=1;jettySize=auto;html=1;" edge="1" parent="1" source="VAKbw_D1ASkcfNDLAL3N-20" target="VAKbw_D1ASkcfNDLAL3N-35">
          <mxGeometry relative="1" as="geometry" />
        </mxCell>
        <mxCell id="VAKbw_D1ASkcfNDLAL3N-20" value="Vigenere" style="rounded=0;whiteSpace=wrap;html=1;" vertex="1" parent="1">
          <mxGeometry x="220" y="-870" width="120" height="60" as="geometry" />
        </mxCell>
        <mxCell id="VAKbw_D1ASkcfNDLAL3N-55" value="" style="edgeStyle=orthogonalEdgeStyle;rounded=0;orthogonalLoop=1;jettySize=auto;html=1;" edge="1" parent="1" source="VAKbw_D1ASkcfNDLAL3N-25" target="VAKbw_D1ASkcfNDLAL3N-45">
          <mxGeometry relative="1" as="geometry" />
        </mxCell>
        <mxCell id="VAKbw_D1ASkcfNDLAL3N-25" value="Caesar" style="rounded=0;whiteSpace=wrap;html=1;" vertex="1" parent="1">
          <mxGeometry x="480" y="-870" width="120" height="60" as="geometry" />
        </mxCell>
        <mxCell id="VAKbw_D1ASkcfNDLAL3N-54" value="" style="edgeStyle=orthogonalEdgeStyle;rounded=0;orthogonalLoop=1;jettySize=auto;html=1;" edge="1" parent="1" source="VAKbw_D1ASkcfNDLAL3N-26" target="VAKbw_D1ASkcfNDLAL3N-48">
          <mxGeometry relative="1" as="geometry" />
        </mxCell>
        <mxCell id="VAKbw_D1ASkcfNDLAL3N-26" value="Vigenere" style="rounded=0;whiteSpace=wrap;html=1;" vertex="1" parent="1">
          <mxGeometry x="630" y="-870" width="120" height="60" as="geometry" />
        </mxCell>
        <mxCell id="VAKbw_D1ASkcfNDLAL3N-33" value="" style="edgeStyle=orthogonalEdgeStyle;rounded=0;orthogonalLoop=1;jettySize=auto;html=1;" edge="1" parent="1" source="VAKbw_D1ASkcfNDLAL3N-29" target="VAKbw_D1ASkcfNDLAL3N-31">
          <mxGeometry relative="1" as="geometry" />
        </mxCell>
        <mxCell id="VAKbw_D1ASkcfNDLAL3N-29" value="User text" style="rounded=0;whiteSpace=wrap;html=1;" vertex="1" parent="1">
          <mxGeometry x="70" y="-770" width="120" height="60" as="geometry" />
        </mxCell>
        <mxCell id="VAKbw_D1ASkcfNDLAL3N-34" style="edgeStyle=orthogonalEdgeStyle;rounded=0;orthogonalLoop=1;jettySize=auto;html=1;exitX=0.5;exitY=1;exitDx=0;exitDy=0;" edge="1" parent="1" target="VAKbw_D1ASkcfNDLAL3N-6">
          <mxGeometry relative="1" as="geometry">
            <mxPoint x="403.03999999999996" y="-1052" as="targetPoint" />
            <mxPoint x="130" y="-630" as="sourcePoint" />
            <Array as="points">
              <mxPoint x="30" y="-630" />
              <mxPoint x="30" y="-1060" />
              <mxPoint x="403" y="-1060" />
            </Array>
          </mxGeometry>
        </mxCell>
        <mxCell id="VAKbw_D1ASkcfNDLAL3N-31" value="Present user with encrypted text:" style="rounded=0;whiteSpace=wrap;html=1;" vertex="1" parent="1">
          <mxGeometry x="70" y="-660" width="120" height="60" as="geometry" />
        </mxCell>
        <mxCell id="VAKbw_D1ASkcfNDLAL3N-38" value="" style="edgeStyle=orthogonalEdgeStyle;rounded=0;orthogonalLoop=1;jettySize=auto;html=1;" edge="1" parent="1" source="VAKbw_D1ASkcfNDLAL3N-35" target="VAKbw_D1ASkcfNDLAL3N-36">
          <mxGeometry relative="1" as="geometry" />
        </mxCell>
        <mxCell id="VAKbw_D1ASkcfNDLAL3N-35" value="User text" style="rounded=0;whiteSpace=wrap;html=1;" vertex="1" parent="1">
          <mxGeometry x="220" y="-770" width="120" height="60" as="geometry" />
        </mxCell>
        <mxCell id="VAKbw_D1ASkcfNDLAL3N-42" style="edgeStyle=orthogonalEdgeStyle;rounded=0;orthogonalLoop=1;jettySize=auto;html=1;exitX=0.5;exitY=1;exitDx=0;exitDy=0;entryX=0.5;entryY=0;entryDx=0;entryDy=0;" edge="1" parent="1" source="VAKbw_D1ASkcfNDLAL3N-36" target="VAKbw_D1ASkcfNDLAL3N-41">
          <mxGeometry relative="1" as="geometry" />
        </mxCell>
        <mxCell id="VAKbw_D1ASkcfNDLAL3N-36" value="User key" style="rounded=0;whiteSpace=wrap;html=1;" vertex="1" parent="1">
          <mxGeometry x="220" y="-660" width="120" height="60" as="geometry" />
        </mxCell>
        <mxCell id="VAKbw_D1ASkcfNDLAL3N-43" style="edgeStyle=orthogonalEdgeStyle;rounded=0;orthogonalLoop=1;jettySize=auto;html=1;exitX=0.5;exitY=1;exitDx=0;exitDy=0;" edge="1" parent="1" source="VAKbw_D1ASkcfNDLAL3N-41">
          <mxGeometry relative="1" as="geometry">
            <mxPoint x="30" y="-640" as="targetPoint" />
          </mxGeometry>
        </mxCell>
        <mxCell id="VAKbw_D1ASkcfNDLAL3N-41" value="Present user with encrypted text" style="rounded=0;whiteSpace=wrap;html=1;" vertex="1" parent="1">
          <mxGeometry x="220" y="-560" width="120" height="60" as="geometry" />
        </mxCell>
        <mxCell id="VAKbw_D1ASkcfNDLAL3N-44" value="" style="edgeStyle=orthogonalEdgeStyle;rounded=0;orthogonalLoop=1;jettySize=auto;html=1;" edge="1" parent="1" source="VAKbw_D1ASkcfNDLAL3N-45" target="VAKbw_D1ASkcfNDLAL3N-46">
          <mxGeometry relative="1" as="geometry" />
        </mxCell>
        <mxCell id="VAKbw_D1ASkcfNDLAL3N-45" value="User text" style="rounded=0;whiteSpace=wrap;html=1;" vertex="1" parent="1">
          <mxGeometry x="480" y="-780" width="120" height="60" as="geometry" />
        </mxCell>
        <mxCell id="VAKbw_D1ASkcfNDLAL3N-63" style="edgeStyle=orthogonalEdgeStyle;rounded=0;orthogonalLoop=1;jettySize=auto;html=1;exitX=0.5;exitY=1;exitDx=0;exitDy=0;" edge="1" parent="1" source="VAKbw_D1ASkcfNDLAL3N-46">
          <mxGeometry relative="1" as="geometry">
            <mxPoint x="790" y="-540" as="targetPoint" />
            <Array as="points">
              <mxPoint x="540" y="-479" />
            </Array>
          </mxGeometry>
        </mxCell>
        <mxCell id="VAKbw_D1ASkcfNDLAL3N-46" value="Present user with decrypted text:" style="rounded=0;whiteSpace=wrap;html=1;" vertex="1" parent="1">
          <mxGeometry x="480" y="-670" width="120" height="60" as="geometry" />
        </mxCell>
        <mxCell id="VAKbw_D1ASkcfNDLAL3N-47" value="" style="edgeStyle=orthogonalEdgeStyle;rounded=0;orthogonalLoop=1;jettySize=auto;html=1;" edge="1" parent="1" source="VAKbw_D1ASkcfNDLAL3N-48" target="VAKbw_D1ASkcfNDLAL3N-50">
          <mxGeometry relative="1" as="geometry" />
        </mxCell>
        <mxCell id="VAKbw_D1ASkcfNDLAL3N-48" value="User text" style="rounded=0;whiteSpace=wrap;html=1;" vertex="1" parent="1">
          <mxGeometry x="630" y="-780" width="120" height="60" as="geometry" />
        </mxCell>
        <mxCell id="VAKbw_D1ASkcfNDLAL3N-49" style="edgeStyle=orthogonalEdgeStyle;rounded=0;orthogonalLoop=1;jettySize=auto;html=1;exitX=0.5;exitY=1;exitDx=0;exitDy=0;entryX=0.5;entryY=0;entryDx=0;entryDy=0;" edge="1" parent="1" source="VAKbw_D1ASkcfNDLAL3N-50" target="VAKbw_D1ASkcfNDLAL3N-51">
          <mxGeometry relative="1" as="geometry" />
        </mxCell>
        <mxCell id="VAKbw_D1ASkcfNDLAL3N-50" value="User key" style="rounded=0;whiteSpace=wrap;html=1;" vertex="1" parent="1">
          <mxGeometry x="630" y="-670" width="120" height="60" as="geometry" />
        </mxCell>
        <mxCell id="VAKbw_D1ASkcfNDLAL3N-62" style="edgeStyle=orthogonalEdgeStyle;rounded=0;orthogonalLoop=1;jettySize=auto;html=1;exitX=1;exitY=0.5;exitDx=0;exitDy=0;entryX=1;entryY=0;entryDx=0;entryDy=0;" edge="1" parent="1" source="VAKbw_D1ASkcfNDLAL3N-51" target="VAKbw_D1ASkcfNDLAL3N-6">
          <mxGeometry relative="1" as="geometry">
            <Array as="points">
              <mxPoint x="790" y="-540" />
              <mxPoint x="790" y="-1050" />
              <mxPoint x="434" y="-1050" />
            </Array>
          </mxGeometry>
        </mxCell>
        <mxCell id="VAKbw_D1ASkcfNDLAL3N-51" value="Present user with decrypted text" style="rounded=0;whiteSpace=wrap;html=1;" vertex="1" parent="1">
          <mxGeometry x="630" y="-570" width="120" height="60" as="geometry" />
        </mxCell>
        <mxCell id="VAKbw_D1ASkcfNDLAL3N-61" style="edgeStyle=orthogonalEdgeStyle;rounded=0;orthogonalLoop=1;jettySize=auto;html=1;exitX=0.75;exitY=0;exitDx=0;exitDy=0;entryX=0.7;entryY=0.875;entryDx=0;entryDy=0;entryPerimeter=0;" edge="1" parent="1" source="VAKbw_D1ASkcfNDLAL3N-14" target="VAKbw_D1ASkcfNDLAL3N-6">
          <mxGeometry relative="1" as="geometry">
            <Array as="points">
              <mxPoint x="430" y="-920" />
            </Array>
          </mxGeometry>
        </mxCell>
      </root>
    </mxGraphModel>
  </diagram>
</mxfile>
